<?xml version="1.0" encoding="UTF-8"?>
<svg width="282px" height="113px" viewBox="0 0 282 113" version="1.1" xmlns="http://www.w3.org/2000/svg" xmlns:xlink="http://www.w3.org/1999/xlink">
    <!-- Generator: Sketch 49.1 (51147) - http://www.bohemiancoding.com/sketch -->
    <title>Logo</title>
    <desc>Created with Sketch.</desc>
    <defs></defs>
    <g id="Logo" stroke="none" stroke-width="1" fill="none" fill-rule="evenodd">
        <path d="M39.75,0 L39.75,8.4 L25.125,8.4 L25.125,52.95 L14.55,52.95 L14.55,8.4 L0,8.4 L0,0 L39.75,0 Z M88.275,0 L70.35,34.425 L70.35,52.95 L59.7,52.95 L59.7,34.425 L41.7,0 L53.85,0 L65.1,23.175 L76.35,0 L88.275,0 Z" id="-TY-" fill="#000000"></path>
        <polygon id="Path" fill="#CF000F" points="282 44.05 282 52.825 88.275 52.825 88.275 44.05"></polygon>
        <path d="M29.575,58.525 C36.0250323,58.525 41.3749788,60.1124841 45.625,63.2875 C49.8750213,66.4625159 52.599994,70.749973 53.8,76.15 L42.7,76.15 C41.6499948,73.749988 39.9875114,71.8375071 37.7125,70.4125 C35.4374886,68.9874929 32.7500155,68.275 29.65,68.275 C26.5999848,68.275 23.9000118,68.974993 21.55,70.375 C19.1999883,71.775007 17.3750065,73.774987 16.075,76.375 C14.7749935,78.975013 14.125,82.0249825 14.125,85.525 C14.125,91.0750278 15.6124851,95.3999845 18.5875,98.5 C21.5625149,101.600016 25.6249743,103.15 30.775,103.15 C34.575019,103.15 37.8374864,102.025011 40.5625,99.775 C43.2875136,97.5249888 45.049996,94.40002 45.85,90.4 L27.925,90.4 L27.925,82.825 L54.7,82.825 L54.7,93.025 C53.9499963,96.5250175 52.4875109,99.7499852 50.3125,102.7 C48.1374891,105.650015 45.2875176,108.012491 41.7625,109.7875 C38.2374824,111.562509 34.2000228,112.45 29.65,112.45 C24.449974,112.45 19.8625199,111.312511 15.8875,109.0375 C11.9124801,106.762489 8.83751087,103.58752 6.6625,99.5125 C4.48748912,95.4374796 3.4,90.7750262 3.4,85.525 C3.4,80.2749737 4.48748912,75.6125204 6.6625,71.5375 C8.83751087,67.4624796 11.8999803,64.2750115 15.85,61.975 C19.8000197,59.6749885 24.374974,58.525 29.575,58.525 Z M87.475,58.3 C92.4250247,58.3 96.9124799,59.4499885 100.9375,61.75 C104.96252,64.0500115 108.137488,67.2624794 110.4625,71.3875 C112.787512,75.5125206 113.95,80.174974 113.95,85.375 C113.95,90.575026 112.787512,95.2499792 110.4625,99.4 C108.137488,103.550021 104.96252,106.774989 100.9375,109.075 C96.9124799,111.375011 92.4250247,112.525 87.475,112.525 C82.5249752,112.525 78.0375201,111.375011 74.0125,109.075 C69.9874799,106.774989 66.8125116,103.550021 64.4875,99.4 C62.1624884,95.2499792 61,90.575026 61,85.375 C61,80.174974 62.1624884,75.5125206 64.4875,71.3875 C66.8125116,67.2624794 69.9874799,64.0500115 74.0125,61.75 C78.0375201,59.4499885 82.5249752,58.3 87.475,58.3 Z M87.475,68.05 C84.3749845,68.05 81.6500117,68.749993 79.3,70.15 C76.9499882,71.550007 75.1125066,73.5624869 73.7875,76.1875 C72.4624934,78.8125131 71.8,81.8749825 71.8,85.375 C71.8,88.8750175 72.4624934,91.9374869 73.7875,94.5625 C75.1125066,97.1875131 76.9499882,99.199993 79.3,100.6 C81.6500117,102.000007 84.3749845,102.7 87.475,102.7 C90.5750155,102.7 93.2999882,102.000007 95.65,100.6 C98.0000117,99.199993 99.8374934,97.1875131 101.1625,94.5625 C102.487507,91.9374869 103.15,88.8750175 103.15,85.375 C103.15,81.8749825 102.487507,78.8125131 101.1625,76.1875 C99.8374934,73.5624869 98.0000117,71.550007 95.65,70.15 C93.2999882,68.749993 90.5750155,68.05 87.475,68.05 Z M146.725,58.3 C151.675025,58.3 156.16248,59.4499885 160.1875,61.75 C164.21252,64.0500115 167.387488,67.2624794 169.7125,71.3875 C172.037512,75.5125206 173.2,80.174974 173.2,85.375 C173.2,90.575026 172.037512,95.2499792 169.7125,99.4 C167.387488,103.550021 164.21252,106.774989 160.1875,109.075 C156.16248,111.375011 151.675025,112.525 146.725,112.525 C141.774975,112.525 137.28752,111.375011 133.2625,109.075 C129.23748,106.774989 126.062512,103.550021 123.7375,99.4 C121.412488,95.2499792 120.25,90.575026 120.25,85.375 C120.25,80.174974 121.412488,75.5125206 123.7375,71.3875 C126.062512,67.2624794 129.23748,64.0500115 133.2625,61.75 C137.28752,59.4499885 141.774975,58.3 146.725,58.3 Z M146.725,68.05 C143.624985,68.05 140.900012,68.749993 138.55,70.15 C136.199988,71.550007 134.362507,73.5624869 133.0375,76.1875 C131.712493,78.8125131 131.05,81.8749825 131.05,85.375 C131.05,88.8750175 131.712493,91.9374869 133.0375,94.5625 C134.362507,97.1875131 136.199988,99.199993 138.55,100.6 C140.900012,102.000007 143.624985,102.7 146.725,102.7 C149.825016,102.7 152.549988,102.000007 154.9,100.6 C157.250012,99.199993 159.087493,97.1875131 160.4125,94.5625 C161.737507,91.9374869 162.4,88.8750175 162.4,85.375 C162.4,81.8749825 161.737507,78.8125131 160.4125,76.1875 C159.087493,73.5624869 157.250012,71.550007 154.9,70.15 C152.549988,68.749993 149.825016,68.05 146.725,68.05 Z M205.075,58.525 C211.675033,58.525 217.149978,60.224983 221.5,63.625 C225.850022,67.025017 228.724993,71.6499707 230.125,77.5 L219.025,77.5 C217.874994,74.6499857 216.087512,72.4000082 213.6625,70.75 C211.237488,69.0999917 208.325017,68.275 204.925,68.275 C202.124986,68.275 199.600011,68.974993 197.35,70.375 C195.099989,71.775007 193.350006,73.774987 192.1,76.375 C190.849994,78.975013 190.225,82.0249825 190.225,85.525 C190.225,88.9750173 190.849994,91.999987 192.1,94.6 C193.350006,97.200013 195.099989,99.199993 197.35,100.6 C199.600011,102.000007 202.124986,102.7 204.925,102.7 C208.325017,102.7 211.237488,101.875008 213.6625,100.225 C216.087512,98.5749918 217.874994,96.3250143 219.025,93.475 L230.125,93.475 C228.724993,99.3250293 225.850022,103.949983 221.5,107.35 C217.149978,110.750017 211.675033,112.45 205.075,112.45 C200.024975,112.45 195.562519,111.312511 191.6875,109.0375 C187.812481,106.762489 184.812511,103.57502 182.6875,99.475 C180.562489,95.3749795 179.5,90.725026 179.5,85.525 C179.5,80.2749737 180.562489,75.6000205 182.6875,71.5 C184.812511,67.3999795 187.799981,64.2125114 191.65,61.9375 C195.500019,59.6624886 199.974975,58.525 205.075,58.525 Z M281.95,59.05 L281.95,112 L271.3,112 L271.3,88.975 L248.65,88.975 L248.65,112 L238.075,112 L238.075,59.05 L248.65,59.05 L248.65,80.5 L271.3,80.5 L271.3,59.05 L281.95,59.05 Z" id="GOOCH" fill="#000000"></path>
    </g>
</svg>