<svg xmlns="http://www.w3.org/2000/svg" viewBox="0 0 104.18 25.43"><title>Asset 4</title><g id="e37891bf-2ab9-465a-aef8-b0cd0aff136b" data-name="Layer 2"><g id="a25c2f18-4707-4a59-a07a-5fd43e72bc35" data-name="Layer 3"><path d="M2.36,16.35V8.13H0V5.42H2.36V1.53H5.45V5.42H8.34V8.13H5.45v7.46c0,1,.47,1.68,1.36,1.68a2,2,0,0,0,1.38-.5l.74,2.32A4.1,4.1,0,0,1,6,20C3.62,20,2.36,18.71,2.36,16.35Z"/><path d="M12.17,22.69a1.93,1.93,0,0,0,2-1.24l.71-1.62L9.07,5.42h3.3l4.16,10.67L20.68,5.42H24l-6.86,16.8a4.78,4.78,0,0,1-4.89,3.21,8.53,8.53,0,0,1-1.74-.21L11,22.45A3.15,3.15,0,0,0,12.17,22.69Z"/><path d="M27.22,21.07a5.53,5.53,0,0,0,4.51,1.82c2,0,4.21-.94,4.21-3.86v-1.7a5.78,5.78,0,0,1-4.56,2.35c-3.63,0-6.31-2.62-6.31-7.3s2.65-7.31,6.31-7.31A5.65,5.65,0,0,1,35.94,7.4v-2H39v13.5c0,5.12-3.8,6.51-7.31,6.51a8,8,0,0,1-5.95-2.12ZM35.94,9.72a4.6,4.6,0,0,0-3.65-1.91c-2.45,0-4,1.83-4,4.57s1.56,4.56,4,4.56A4.6,4.6,0,0,0,35.94,15Z"/><path d="M42.16,12.52a7.32,7.32,0,1,1,14.64,0C56.8,16.62,54,20,49.47,20A7.14,7.14,0,0,1,42.16,12.52Zm11.43,0c0-2.5-1.47-4.71-4.12-4.71s-4.1,2.21-4.1,4.71,1.47,4.75,4.1,4.75S53.59,15.06,53.59,12.52Z"/><path d="M59,12.52a7.32,7.32,0,1,1,14.64,0c0,4.1-2.77,7.49-7.33,7.49A7.14,7.14,0,0,1,59,12.52Zm11.43,0c0-2.5-1.47-4.71-4.12-4.71s-4.1,2.21-4.1,4.71,1.48,4.75,4.1,4.75S70.47,15.06,70.47,12.52Z"/><path d="M83.29,5.07A6.39,6.39,0,0,1,88.74,7.6l-2,1.89a3.81,3.81,0,0,0-3.27-1.68c-2.6,0-4.31,1.94-4.31,4.71s1.71,4.75,4.31,4.75a3.88,3.88,0,0,0,3.27-1.68l2,1.88A6.37,6.37,0,0,1,83.29,20a7.16,7.16,0,0,1-7.37-7.49A7.14,7.14,0,0,1,83.29,5.07Z"/><path d="M101.08,10.7c0-2.21-1.15-2.89-2.89-2.89a4.79,4.79,0,0,0-3.65,1.91v9.93H91.45V0h3.09V7.37a6.8,6.8,0,0,1,5-2.3c3.06,0,4.6,1.59,4.6,4.51V19.65h-3.1Z"/></g></g></svg>