<svg xmlns="http://www.w3.org/2000/svg" viewBox="0 0 118.23 50"><title>logo</title><path d="M170.92,164.88h-6.44v-4.13h17.57v4.13h-6.41v17.91h-4.72Z" transform="translate(-164.48 -160.75)"/><path d="M191.21,173.77l-8.49-13h5.35l5.48,8.86,5.42-8.86h5.35l-8.42,13v9h-4.69Z" transform="translate(-164.48 -160.75)"/><path d="M176.5,187.93a10.33,10.33,0,0,1,9.12,4.82l-3.9,2.12a6.25,6.25,0,0,0-5.22-2.78c-4,0-6.9,3.07-6.9,7.24s2.9,7.23,6.9,7.23a7.52,7.52,0,0,0,4.76-1.68V202.2h-5.88v-4h10.5v8.42a12.23,12.23,0,0,1-9.38,4.16c-6.44,0-11.73-4.49-11.73-11.42S170.06,187.93,176.5,187.93Z" transform="translate(-164.48 -160.75)"/><path d="M200.06,187.93c6.67,0,11.53,4.76,11.53,11.4s-4.86,11.39-11.53,11.39a11.4,11.4,0,1,1,0-22.79Zm0,4.16c-4.06,0-6.67,3.11-6.67,7.24s2.61,7.23,6.67,7.23,6.71-3.14,6.71-7.23S204.12,192.09,200.06,192.09Z" transform="translate(-164.48 -160.75)"/><path d="M225.34,187.93c6.68,0,11.53,4.76,11.53,11.4s-4.85,11.39-11.53,11.39a11.4,11.4,0,1,1,0-22.79Zm0,4.16c-4.06,0-6.67,3.11-6.67,7.24s2.61,7.23,6.67,7.23,6.71-3.14,6.71-7.23S229.41,192.09,225.34,192.09Z" transform="translate(-164.48 -160.75)"/><path d="M239.13,199.33c0-6.78,5.12-11.4,11.56-11.4a10.16,10.16,0,0,1,9.38,5.38l-4,2a6,6,0,0,0-5.35-3.21c-3.83,0-6.74,3.07-6.74,7.24s2.91,7.23,6.74,7.23a6,6,0,0,0,5.35-3.2l4,1.95a10.22,10.22,0,0,1-9.38,5.41C244.25,210.72,239.13,206.1,239.13,199.33Z" transform="translate(-164.48 -160.75)"/><path d="M278,201.08H267.58v9.25h-4.69v-22h4.69V197H278v-8.66h4.72v22H278Z" transform="translate(-164.48 -160.75)"/><rect x="242.39" y="142.47" width="4.69" height="75.94" transform="translate(-100.18 264.42) rotate(-90)" style="fill:#e03230"/></svg>