<svg xmlns="http://www.w3.org/2000/svg" viewBox="0 0 100 50"><title>personal-logo</title><path d="M10.38,9.63H5.5V6.5H18.8V9.63H14V23.17H10.38Z" style="fill:#231f20"/><path d="M27.35,16.35,20.93,6.5H25l4.14,6.7,4.1-6.7h4.05L30.9,16.35v6.82H27.35Z" style="fill:#231f20"/><path d="M14.38,26.23a7.79,7.79,0,0,1,6.89,3.65l-2.95,1.6a4.71,4.71,0,0,0-3.94-2.1,5.19,5.19,0,0,0-5.23,5.47,5.19,5.19,0,0,0,5.23,5.47A5.6,5.6,0,0,0,18,39.05V37H13.53V34h7.94v6.37a9.24,9.24,0,0,1-7.09,3.15c-4.88,0-8.88-3.4-8.88-8.65S9.5,26.23,14.38,26.23Z" style="fill:#231f20"/><path d="M32.2,26.23a8.37,8.37,0,0,1,8.72,8.62,8.37,8.37,0,0,1-8.72,8.62,8.37,8.37,0,0,1-8.7-8.62A8.37,8.37,0,0,1,32.2,26.23Zm0,3.15c-3.07,0-5.05,2.35-5.05,5.47s2,5.47,5.05,5.47,5.07-2.37,5.07-5.47S35.27,29.38,32.2,29.38Z" style="fill:#231f20"/><path d="M51.33,26.23a8.38,8.38,0,0,1,8.72,8.62,8.38,8.38,0,0,1-8.72,8.62,8.37,8.37,0,0,1-8.7-8.62A8.37,8.37,0,0,1,51.33,26.23Zm0,3.15c-3.08,0-5,2.35-5,5.47s2,5.47,5,5.47S56.4,38,56.4,34.85,54.4,29.38,51.33,29.38Z" style="fill:#231f20"/><path d="M61.75,34.85a8.44,8.44,0,0,1,8.75-8.62,7.71,7.71,0,0,1,7.1,4.07l-3,1.5a4.56,4.56,0,0,0-4-2.42,5.16,5.16,0,0,0-5.1,5.47,5.16,5.16,0,0,0,5.1,5.47,4.53,4.53,0,0,0,4-2.42l3,1.47a7.73,7.73,0,0,1-7.1,4.1A8.44,8.44,0,0,1,61.75,34.85Z" style="fill:#231f20"/><path d="M91.15,36.17H83.28v7H79.73V26.5h3.55v6.55h7.87V26.5h3.57V43.17H91.15Z" style="fill:#231f20"/><rect x="41.81" y="6.5" width="52.91" height="16.67" style="fill:#ce2b2d"/></svg>