<svg xmlns="http://www.w3.org/2000/svg" viewBox="0 0 145.7 35"><title>Asset 3</title><g id="e73eb93d-9e2a-4c93-bfd6-8c6527dee7a0" data-name="Layer 2"><g id="f0134566-bb4c-440a-a0e0-1c66eb3fe526" data-name="Layer 3"><path d="M3.25,22.19V12H0V7.46H3.25V2.11H8.44V7.46h4V12h-4v8.85C8.44,22,9.08,23,10.22,23A2.87,2.87,0,0,0,12,22.39l1.09,3.89a6.36,6.36,0,0,1-4.3,1.26C5.19,27.54,3.25,25.67,3.25,22.19Z"/><path d="M17.65,30.42A2.6,2.6,0,0,0,20.36,29l.73-1.67L13.14,7.46h5.52l5.11,13.63L28.88,7.46h5.56l-9.21,22.8C23.77,34,21.17,34.92,17.81,35a14.31,14.31,0,0,1-2.56-.28L16,30.09A4.35,4.35,0,0,0,17.65,30.42Z"/><path d="M38.65,28.35a7.83,7.83,0,0,0,6.13,2.43c2.47,0,5.39-1.09,5.39-4.94v-2a7.64,7.64,0,0,1-6,3.08c-4.91,0-8.64-3.45-8.64-10S39.18,7,44.13,7a7.53,7.53,0,0,1,6,3V7.46h5.19V25.71c0,7.47-5.75,9.29-10.58,9.29a11.88,11.88,0,0,1-8.44-2.92ZM50.17,13.79a5.56,5.56,0,0,0-4.42-2.23c-2.92,0-5,2-5,5.39s2,5.4,5,5.4a5.71,5.71,0,0,0,4.42-2.23Z"/><path d="M59.22,17.24A9.92,9.92,0,0,1,69.56,7,9.93,9.93,0,0,1,79.94,17.24a9.94,9.94,0,0,1-10.38,10.3A9.93,9.93,0,0,1,59.22,17.24Zm15.37,0c0-3-1.83-5.68-5-5.68s-5,2.64-5,5.68,1.79,5.71,5,5.71S74.59,20.32,74.59,17.24Z"/><path d="M82.5,17.24a10.37,10.37,0,0,1,20.73,0,10.37,10.37,0,0,1-20.73,0Zm15.37,0c0-3-1.82-5.68-5-5.68s-5,2.64-5,5.68,1.78,5.71,5,5.71S97.87,20.32,97.87,17.24Z"/><path d="M116.17,7c4,0,6.45,1.74,7.74,3.52l-3.36,3.17a4.74,4.74,0,0,0-4.14-2.11c-3.12,0-5.31,2.27-5.31,5.68S113.29,23,116.41,23a5,5,0,0,0,4.14-2.1L123.91,24c-1.29,1.82-3.73,3.57-7.74,3.57a10,10,0,0,1-10.39-10.3C105.78,11.23,110.12,7,116.17,7Z"/><path d="M140.54,15.13c0-2.72-1.42-3.57-3.65-3.57a5.7,5.7,0,0,0-4.46,2.31V27.05h-5.15V0h5.15V10a9.07,9.07,0,0,1,6.9-3c4.3,0,6.37,2.35,6.37,6.16V27.05h-5.16Z"/></g></g></svg>